<svg width="280" height="44" viewBox="0 0 280 44" fill="none" xmlns="http://www.w3.org/2000/svg">
    <path d="M236.485 0H235.529V43.3481H236.485V0Z" fill="#1F232B"/>
    <path d="M253.281 26.6094H249.85V16.5938H255.761V17.5878H251.04V20.8242H253.268C255.285 20.8242 256.573 21.6639 256.573 23.6679V23.7236C256.573 25.6143 255.285 26.6094 253.281 26.6094ZM253.253 25.6562C254.71 25.6562 255.382 24.9424 255.382 23.7236V23.6679C255.382 22.4345 254.696 21.7764 253.141 21.7764H251.04V25.6562H253.253Z" fill="#1F232B"/>
    <path d="M257.678 24.578C257.678 22.8827 259.471 22.3085 261.348 22.3085H262.398V21.7763C262.398 20.6142 261.95 20.124 260.829 20.124C259.821 20.124 259.261 20.5439 259.148 21.4404H257.986C258.14 19.7734 259.471 19.1572 260.886 19.1572C262.286 19.1572 263.561 19.7314 263.561 21.7763V26.6093H262.398V25.6845C261.852 26.371 261.194 26.7353 260.115 26.7353C258.756 26.7352 257.678 26.077 257.678 24.578ZM262.398 24.0457V23.1346H261.389C259.919 23.1346 258.84 23.4989 258.84 24.578C258.84 25.3339 259.204 25.8104 260.227 25.8104C261.46 25.8104 262.398 25.1805 262.398 24.0457Z" fill="#1F232B"/>
    <path d="M270.285 23.3457H266.685V26.6094H265.522V19.2832H266.685V22.3652H270.285V19.2832H271.448V26.6094H270.285V23.3457Z" fill="#1F232B"/>
    <path d="M274.617 22.8692V26.6094H273.454V19.2832H274.617V22.7012L277.657 19.2832H279.016L275.878 22.7295L279.282 26.6094H277.867L274.617 22.8692Z" fill="#1F232B"/>
    <path d="M21.9984 0C9.84923 0 0 9.84923 0 21.9966C0 34.1445 9.84923 43.9987 21.9984 43.9987C34.1458 43.9987 44 34.1445 44 21.9966C44 9.84923 34.1458 0 21.9984 0ZM18.8774 31.3557L17.2558 36.1641C11.1612 34.1087 7.06706 28.3765 7.06706 21.9C7.06706 15.4159 11.1692 9.68176 17.2741 7.63188L18.8898 12.4432C14.8535 13.7983 12.1421 17.5985 12.1421 21.9C12.1421 26.1968 14.8491 29.9967 18.8774 31.3557ZM26.4444 36.2612L24.9248 31.4191C29.0716 30.1177 31.8579 26.2921 31.8579 21.9C31.8579 17.5629 29.1161 13.7526 25.0348 12.419L26.6119 7.59473C32.7852 9.61234 36.9329 15.3614 36.9329 21.9C36.9329 28.5213 32.7178 34.2927 26.4444 36.2612Z" fill="#02BAE8"/>
    <path d="M220.306 25.6478L222.711 28.5283C220.253 31.118 217.135 31.8315 214.651 31.8315C212.299 31.8315 210.528 31.4616 209.075 30.7216C205.877 29.1361 204.265 25.9121 204.265 22.001C204.265 16.0551 208.282 11.7212 214.201 11.7212C220.755 11.7212 223.953 16.6365 223.53 23.0316L208.52 23.058C208.599 24.67 209.524 26.2028 210.819 26.9691C211.902 27.6298 213.171 27.9733 214.915 27.9733C216.738 27.9733 218.641 27.3391 220.306 25.6478ZM208.573 19.5962H219.169C218.905 17.2707 217.003 15.3152 213.937 15.3152C210.819 15.3152 208.943 17.4821 208.573 19.5962ZM107.836 31.3294H113.253L104.744 21.4725L113.121 12.1969H107.783L101.388 19.6226H99.5119V12.1969H95.363V31.3294H99.5119V23.7187H101.415L107.836 31.3294ZM125.462 15.6323C122.001 15.6323 119.701 18.3278 119.701 21.7632C119.701 25.1986 122.001 27.894 125.462 27.894C129.003 27.894 131.197 25.2514 131.197 21.7632C131.197 18.3542 129.056 15.6323 125.462 15.6323ZM126.176 11.7212C131.567 11.7212 135.531 15.9494 135.531 21.7632C135.531 27.4976 131.593 31.8315 126.176 31.8315C123.533 31.8315 121.472 30.933 119.992 29.321V39.2837H115.817V12.1969H119.886V14.496C121.472 12.5933 123.533 11.7212 126.176 11.7212ZM180.64 12.1969H163.516V16.0287H169.99V31.3294H174.166V16.0287H180.64V12.1969ZM92.4826 12.1969H75.3584V16.0287H81.8328V31.3294H86.0082V16.0287H92.4826V12.1969ZM70.2846 21.7632C70.2846 18.1956 67.7477 15.553 64.3123 15.553C60.9033 15.553 58.34 18.1164 58.34 21.7632C58.34 25.3571 60.824 27.9997 64.3123 27.9997C67.7213 27.9997 70.2846 25.3835 70.2846 21.7632ZM54.059 21.7632C54.059 16.0287 58.4985 11.7212 64.3123 11.7212C70.1261 11.7212 74.5656 16.0287 74.5656 21.7632C74.5656 27.4976 70.1261 31.8315 64.3123 31.8315C58.4985 31.8315 54.059 27.4976 54.059 21.7632ZM200.883 12.1969V31.3294H196.787V18.9884L186.771 31.3294H183.494V12.1969H187.59V24.5115L197.632 12.1969H200.883ZM160.662 31.3294H156.513V12.1969H160.662V31.3294ZM150.039 24.8022C150.039 23.0845 148.849 21.8953 147.211 21.8953H143.009V27.7883H147.211C148.849 27.7883 150.039 26.5199 150.039 24.8022ZM154.161 24.8022C154.161 28.634 151.386 31.3294 147.343 31.3294H138.913V12.1969H143.036V18.3806H147.713C151.677 18.3806 154.161 20.944 154.161 24.8022Z" fill="#1F232B"/>
</svg>
