<svg width="24" height="24" viewBox="0 0 24 24" fill="none" xmlns="http://www.w3.org/2000/svg">
    <circle cx="12" cy="11" r="9" fill="#B8C7D4"/>
    <circle cx="12" cy="15.0359" r="1" fill="white"/>
    <path d="M12.0002 11.5892L11.8405 10.7543L11.1502 10.8864V11.5892H12.0002ZM14.3828 8.75601L15.2307 8.69669L15.2307 8.69665L14.3828 8.75601ZM12.8502 12.9987V11.5892H11.1502V12.9987H12.8502ZM12.0002 11.5892C12.1599 12.424 12.1603 12.424 12.1607 12.4239C12.1608 12.4239 12.1612 12.4238 12.1615 12.4237C12.1621 12.4236 12.1627 12.4235 12.1633 12.4234C12.1646 12.4231 12.1661 12.4228 12.1677 12.4225C12.171 12.4219 12.1748 12.4211 12.1793 12.4202C12.1883 12.4183 12.1997 12.4159 12.2134 12.4128C12.2407 12.4067 12.2774 12.3981 12.3219 12.3866C12.4107 12.3637 12.5322 12.3289 12.6753 12.279C12.9583 12.1804 13.3425 12.0169 13.7279 11.7573C14.519 11.2244 15.3398 10.2553 15.2307 8.69669L13.5349 8.81533C13.59 9.60257 13.2194 10.0501 12.7782 10.3473C12.5474 10.5028 12.3052 10.6077 12.1158 10.6737C12.0227 10.7062 11.9465 10.7278 11.8967 10.7407C11.8719 10.7471 11.854 10.7512 11.8441 10.7534C11.8392 10.7545 11.8363 10.7551 11.8357 10.7552C11.8353 10.7553 11.8356 10.7553 11.8363 10.7551C11.8367 10.755 11.8373 10.7549 11.838 10.7548C11.8383 10.7547 11.8387 10.7547 11.8391 10.7546C11.8393 10.7545 11.8397 10.7545 11.8398 10.7544C11.8401 10.7544 11.8405 10.7543 12.0002 11.5892ZM15.2307 8.69665C15.098 6.8013 13.3089 5.95146 11.9021 6.00004C11.1614 6.02562 10.3794 6.28578 9.80473 6.87271C9.21014 7.47998 8.93038 8.34247 9.0486 9.36884L10.7374 9.17433C10.6689 8.57928 10.8349 8.25055 11.0194 8.06205C11.2239 7.85321 11.5545 7.71306 11.9608 7.69903C12.848 7.66839 13.4906 8.18219 13.5349 8.81537L15.2307 8.69665Z" fill="white"/>
</svg>
